<svg xmlns="http://www.w3.org/2000/svg" width="1024" height="1024" viewBox="0 0 1024 1024">
  <polygon points="927.69,272.00 927.69,752.00 512.00,992.00 96.31,752.00 96.31,272.00 512.00,32.00" fill="#cd473f" stroke="#000000" stroke-width="32" stroke-linejoin="miter"/>
  <path d="M287 0V162H24V219L317 642H415V236H510V162H415V0ZM68 236H287V551Z" transform="translate(130.212 727.000) scale(0.651515 -0.651515)" fill="#d8b65a"/>
  <path d="M10 0V10L27 15Q48 22 60.0 33.5Q72 45 84 63L238 301L63 599Q53 616 46.0 625.5Q39 635 20 643L4 650V660H272V650L249 643Q228 636 226.0 621.0Q224 606 236 585L339 410L449 584Q462 605 464.5 622.0Q467 639 444 645L424 650V660H563V650L537 642Q518 637 507.5 625.5Q497 614 486 597L352 388L542 63Q553 45 563.0 35.5Q573 26 591 18L610 10V0H330V10L353 16Q377 22 380.0 38.0Q383 54 370 75L251 278L120 71Q107 51 109.5 35.0Q112 19 131 14L145 10V0Z" transform="translate(480.727 727.000) scale(0.651515 -0.651515)" fill="#d8b65a"/>
</svg>
